<?xml version="1.0" standalone="no"?>
<!DOCTYPE svg PUBLIC "-//W3C//DTD SVG 20010904//EN"
 "http://www.w3.org/TR/2001/REC-SVG-20010904/DTD/svg10.dtd">
<svg version="1.0" xmlns="http://www.w3.org/2000/svg"
 width="512.000000pt" height="512.000000pt" viewBox="0 0 512.000000 512.000000"
 preserveAspectRatio="xMidYMid meet">
<metadata>
Created by potrace 1.11, written by Peter Selinger 2001-2013
</metadata>
<g transform="translate(0.000000,512.000000) scale(0.100000,-0.100000)"
fill="#000000" stroke="none">
<path d="M21 5044 c1 -41 10 -106 21 -142 10 -37 23 -84 28 -104 l11 -38 161
-2 162 -3 24 -75 c13 -41 25 -84 27 -95 2 -11 17 -67 34 -125 17 -58 33 -114
35 -125 2 -11 13 -58 25 -105 11 -47 34 -146 51 -220 17 -74 41 -182 55 -240
14 -58 27 -116 29 -130 2 -14 16 -72 30 -130 29 -121 96 -413 102 -450 3 -14
14 -59 24 -101 11 -42 22 -93 26 -114 3 -21 10 -50 16 -64 5 -14 9 -28 9 -31
-1 -5 28 -136 74 -335 13 -55 26 -113 28 -130 3 -16 15 -66 26 -110 11 -44 21
-83 21 -86 0 -4 -12 -10 -27 -14 -28 -7 -114 -61 -149 -93 -110 -103 -165
-237 -159 -390 5 -138 58 -256 157 -348 40 -37 129 -95 153 -100 6 -1 37 -9
70 -18 53 -13 101 -19 237 -31 21 -2 41 1 44 6 3 5 734 9 1785 9 l1779 0 0
180 0 180 -1867 1 c-1028 1 -1871 1 -1876 0 -4 -1 -22 5 -41 13 -36 15 -69 56
-80 99 -16 65 35 148 99 161 32 6 42 8 215 30 107 14 137 18 280 32 30 2 100
11 155 19 134 18 190 25 338 40 26 3 60 7 75 9 15 3 50 7 77 11 28 3 84 10
125 15 83 11 137 17 220 25 30 3 107 12 170 21 128 17 160 20 240 29 54 6 91
10 170 20 88 11 251 31 320 39 25 3 70 8 100 11 60 6 103 11 195 25 33 5 89
12 125 15 90 9 118 12 175 20 28 3 70 8 95 11 25 2 72 9 105 14 71 11 175 21
227 24 21 0 38 5 38 9 0 5 4 6 8 3 5 -3 68 2 140 11 130 16 132 17 133 42 3
48 7 105 14 186 7 81 8 103 19 320 3 66 8 145 11 175 8 90 14 170 20 255 3 44
7 118 11 165 10 162 14 215 19 305 6 101 14 227 20 295 2 25 7 90 10 145 4 55
8 116 10 135 2 19 7 94 10 165 4 72 7 141 8 155 l2 25 -1148 5 -1148 5 31 48
c16 26 30 50 30 52 0 2 18 33 40 67 22 35 40 70 40 78 0 13 -78 67 -84 58 -9
-10 -76 -119 -76 -122 0 -3 -24 -44 -54 -93 l-54 -88 -775 -3 -774 -2 -22 82
c-12 46 -23 92 -25 103 -2 11 -16 66 -30 121 -15 56 -29 111 -31 123 -10 46
-13 58 -24 99 l-12 42 -455 0 -455 0 2 -76z m735 -146 c7 -8 53 -178 47 -178
-2 0 -1 -6 4 -12 4 -7 8 -15 8 -18 1 -6 18 -83 20 -90 21 -70 28 -99 30 -115
1 -11 3 -20 5 -20 1 0 3 -9 5 -20 2 -11 9 -41 15 -67 l12 -48 114 0 114 0 0
-142 0 -143 -152 2 c-84 0 -156 1 -159 2 -10 2 -30 91 -24 102 4 5 2 9 -2 9
-5 0 -9 8 -9 18 -1 13 -37 166 -69 292 -3 8 -27 94 -56 190 -28 96 -52 182
-54 190 -2 8 -6 22 -10 32 -4 11 -1 17 11 20 25 4 144 1 150 -4z m802 -710
l-3 -142 -173 0 c-94 -1 -173 1 -173 4 -1 3 -2 67 -3 143 l-1 137 178 0 178 0
-3 -142z m430 0 l-3 -142 -165 -1 c-91 0 -170 1 -176 3 -8 2 -11 47 -11 143
l0 139 179 0 179 0 -3 -142z m432 82 c0 -55 -5 -69 -49 -143 l-50 -82 -123 2
c-68 0 -126 1 -129 2 -3 1 -6 64 -6 141 l0 140 178 0 179 0 0 -60z m430 -82
l0 -143 -177 1 -178 0 1 40 c1 28 15 62 43 108 23 38 41 70 41 73 0 3 9 18 21
34 l20 29 115 0 114 0 0 -142z m431 120 c3 -106 1 -247 -4 -254 -4 -7 -318
-11 -347 -5 -4 1 -5 214 -1 269 1 9 43 12 176 12 175 0 175 0 176 -22z m427
-120 l-3 -142 -165 -1 c-91 0 -170 2 -175 6 -8 6 -12 182 -6 267 1 9 43 12
176 12 l176 0 -3 -142z m432 3 c0 -102 -3 -140 -12 -143 -11 -3 -321 -2 -338
1 -3 1 -5 64 -5 141 l0 140 177 0 178 0 0 -139z m430 -1 c0 -105 -3 -140 -12
-141 -50 -4 -331 -3 -337 1 -3 3 -7 67 -7 143 l0 137 178 0 178 0 0 -140z
m246 123 c-2 -10 -8 -72 -11 -138 -4 -66 -10 -122 -15 -125 -4 -3 -39 -5 -76
-4 l-68 1 -1 141 0 142 88 0 c79 0 88 -2 83 -17z m-3703 -342 c16 -1 17 -14
15 -178 l-3 -176 -105 -1 -105 0 -27 110 c-15 60 -29 120 -32 134 -2 14 -5 25
-6 25 -1 0 -3 11 -4 25 -2 14 -5 32 -7 40 -3 11 7 16 36 20 33 4 162 5 238 1z
m435 0 c10 -1 12 -40 10 -178 l-3 -177 -175 0 -175 -1 0 177 0 177 70 3 c59 3
230 2 273 -1z m437 -176 l0 -178 -168 -1 c-102 -1 -172 3 -176 9 -5 6 -8 85
-8 177 l0 167 36 3 c20 2 99 2 176 2 l140 -1 0 -178z m266 130 c-16 -27 -42
-72 -59 -100 -17 -27 -49 -82 -71 -122 -23 -39 -45 -74 -50 -77 -5 -4 -8 66
-7 167 l1 172 60 5 c33 3 81 5 107 5 l47 0 -28 -50z m577 46 c22 -1 22 -1 22
-176 0 -133 -3 -175 -12 -176 -17 -1 -297 -1 -323 0 -20 1 -21 7 -20 174 0
157 2 172 18 177 15 4 163 4 315 1z m449 -5 c7 -6 6 -336 0 -343 -4 -3 -83 -6
-177 -7 -163 -1 -170 0 -171 19 -1 11 -2 90 -3 175 l-1 155 50 5 c55 5 296 3
302 -4z m416 5 c16 -1 17 -14 15 -178 l-3 -177 -175 0 -174 1 -1 174 0 174 40
5 c32 4 183 4 298 1z m435 -1 c10 0 12 -39 10 -177 l-3 -177 -165 1 c-91 1
-169 2 -175 2 -6 1 -10 67 -10 176 l-1 174 36 3 c27 2 193 1 308 -2z m390 1
l52 -1 -2 -177 -3 -177 -168 0 c-103 -1 -171 3 -175 9 -4 6 -7 84 -8 175 l0
165 60 5 c34 3 90 4 126 3 36 -1 89 -2 118 -2z m268 -75 c-4 -39 -9 -107 -12
-151 -2 -44 -6 -89 -9 -100 -2 -11 -4 -22 -4 -26 -1 -3 -18 -4 -38 -3 -21 1
-47 3 -58 3 -19 1 -20 8 -20 176 l-1 174 56 3 c94 5 93 6 86 -76z m-2366 -103
l0 -178 -110 0 c-61 0 -110 1 -110 3 0 1 28 50 63 108 110 187 117 199 129
222 6 12 15 22 20 22 4 0 8 -80 8 -177z m-1307 -252 c15 -1 17 -16 17 -176 l0
-175 -60 0 c-57 0 -60 1 -66 28 -3 15 -12 52 -20 82 -7 30 -15 69 -18 85 -9
48 -15 75 -21 96 -3 10 -7 28 -10 38 -5 17 0 20 32 23 21 2 58 2 83 1 25 -1
53 -2 63 -2z m415 0 l32 -1 -2 -176 -3 -176 -145 1 c-80 0 -159 0 -175 0 l-31
1 1 173 c0 157 2 172 18 177 15 4 82 4 305 1z m450 -1 c19 0 14 -62 -8 -90
-11 -14 -20 -29 -20 -33 0 -5 -8 -21 -19 -35 -10 -15 -30 -48 -43 -73 -74
-132 -58 -122 -179 -120 l-76 1 0 175 0 174 46 3 c36 2 221 1 299 -2z m420 1
c22 -1 22 -1 22 -176 l0 -175 -55 -1 c-30 0 -84 0 -120 0 -36 0 -92 0 -124 0
l-59 1 2 103 c1 83 5 109 21 133 10 16 29 47 40 69 28 52 27 52 273 46z m415
-1 l37 0 0 -175 0 -175 -30 0 c-16 -1 -86 -1 -155 -1 -69 0 -135 0 -148 1
l-23 0 1 170 c0 117 4 173 12 178 6 4 69 6 140 5 70 -1 145 -2 166 -3z m468
-20 c2 -117 0 -323 -4 -327 -3 -2 -82 -5 -176 -6 -146 -2 -171 0 -172 13 0 8
-1 88 -2 177 -2 155 -1 162 18 165 11 2 91 3 178 3 l157 0 1 -25z m382 21 l47
-1 0 -175 0 -175 -42 0 c-210 -3 -302 0 -307 8 -3 6 -6 83 -5 173 0 192 -15
175 152 172 59 -1 128 -2 155 -2z m455 -1 c22 0 22 0 22 -175 l0 -175 -177 0
-178 0 0 175 -1 174 26 3 c14 2 84 2 155 1 72 -1 140 -2 153 -3z m430 1 c22
-1 22 -1 22 -176 l0 -175 -178 0 -178 0 0 175 0 174 55 3 c46 2 145 2 279 -1z
m214 -21 c-2 -7 -5 -47 -7 -89 -5 -86 -16 -235 -19 -238 -3 -3 -33 -5 -61 -4
l-30 1 0 173 c0 163 1 172 20 177 33 10 100 -4 97 -20z m-2772 -295 c0 -29 -4
-35 -21 -35 -11 0 -19 3 -17 8 21 42 32 62 35 62 1 0 3 -16 3 -35z m-867 -114
c4 -1 7 -80 7 -177 0 -136 -3 -175 -12 -172 -7 3 -19 31 -25 64 -7 32 -15 68
-17 79 -3 11 -8 34 -11 50 -3 17 -13 55 -21 86 -7 31 -14 59 -14 62 0 10 39
14 93 8z m430 0 c4 -1 7 -80 7 -176 l0 -175 -178 0 -177 0 0 173 c0 127 3 173
12 177 10 4 303 5 336 1z m210 0 c5 -1 -1 -17 -13 -36 -12 -19 -28 -47 -36
-62 -8 -15 -30 -52 -48 -80 l-33 -53 0 113 c0 61 4 114 8 117 6 4 85 5 122 1z
m225 -174 l2 -177 -149 0 -150 0 102 174 c106 182 107 183 172 180 19 -1 20
-9 23 -177z m428 171 c5 -4 8 -81 6 -177 l-3 -171 -178 0 -178 0 1 175 c0 168
1 174 20 177 37 5 322 1 332 -4z m434 -171 l0 -177 -177 2 -178 3 0 170 c0
156 1 170 18 175 10 3 90 5 178 5 l159 0 0 -178z m431 163 c0 -8 1 -88 2 -178
l2 -162 -180 2 -180 3 0 165 c0 91 1 170 3 175 1 6 69 10 177 10 149 0 175 -2
176 -15z m427 -163 l2 -177 -177 2 -177 3 0 168 c-1 120 2 171 11 175 6 4 85
7 175 7 l163 -1 3 -177z m430 0 l2 -177 -177 2 -178 3 0 170 c0 157 1 170 18
175 10 3 89 5 175 5 l157 -1 3 -177z m425 174 c4 -1 7 -80 7 -176 l0 -175
-178 0 -178 0 0 173 c0 160 1 172 18 177 15 4 299 5 331 1z m162 -115 c-4 -67
-8 -132 -10 -146 -2 -14 -4 -40 -4 -57 -1 -30 -4 -33 -33 -33 l-33 0 1 172 c1
95 2 175 3 178 1 3 19 5 41 6 l40 1 -5 -121z m-3215 -319 c0 -5 -45 -86 -101
-179 l-100 -169 -52 3 -52 3 0 170 c0 94 3 172 6 175 12 9 299 6 299 -3z m480
-169 l0 -178 -179 0 -178 0 0 166 c0 113 4 169 12 177 8 8 64 12 178 12 l167
0 0 -177z m430 -1 l0 -177 -177 2 -178 3 -1 170 c0 94 1 172 2 175 1 3 81 5
178 5 l176 0 0 -178z m418 174 c9 -1 12 -43 12 -176 l0 -175 -178 0 -177 0 0
178 -1 177 166 -1 c91 -1 171 -2 178 -3z m443 -16 c0 -11 1 -90 1 -175 l0
-155 -178 -3 -179 -2 1 171 c0 115 4 173 12 178 6 3 85 6 176 6 159 0 166 -1
167 -20z m429 -158 l0 -177 -177 2 -177 3 -1 175 0 175 178 0 177 0 0 -178z
m430 1 l0 -178 -178 0 -177 0 0 178 0 177 177 0 178 0 0 -177z m430 21 c0
-117 -3 -156 -12 -156 -7 -1 -35 -4 -63 -7 -27 -3 -72 -8 -100 -11 -27 -3 -68
-8 -90 -11 -22 -3 -51 -7 -65 -9 l-26 -4 2 167 c0 92 2 172 2 177 1 6 67 10
177 10 l175 0 0 -156z m127 148 c6 -4 9 -19 7 -34 -6 -32 -12 -117 -13 -194
-1 -43 -5 -58 -17 -63 -9 -4 -19 -4 -23 -1 -9 10 -7 290 2 296 11 8 27 6 44
-4z m-3140 -344 c-3 -2 -30 -3 -61 -1 l-55 3 57 98 57 99 3 -97 c1 -54 1 -99
-1 -102z m-303 -82 c3 -4 -1 -17 -9 -27 -14 -18 -14 -18 -15 9 0 26 13 36 24
18z m304 -110 c1 -63 -1 -118 -6 -123 -4 -4 -33 -10 -63 -12 -52 -5 -130 -14
-176 -21 -17 -3 -24 4 -32 27 -10 27 -6 38 33 107 87 153 68 137 160 136 l81
0 3 -114z m430 19 l-3 -95 -55 -6 c-173 -19 -213 -24 -271 -35 l-26 -5 2 118
c1 65 3 118 3 118 1 0 81 0 177 0 l176 0 -3 -95z m430 27 c2 -37 -1 -67 -5
-68 -4 0 -15 -2 -24 -4 -8 -1 -41 -6 -71 -9 -31 -4 -64 -8 -75 -10 -11 -3 -44
-7 -74 -10 -30 -4 -66 -8 -80 -10 l-26 -3 2 91 c1 50 3 91 4 91 0 0 79 0 174
0 l172 0 3 -68z m425 64 c11 -2 8 -81 -3 -82 -5 -1 -14 -2 -19 -3 -5 0 -12 -4
-16 -8 -4 -4 -13 -4 -20 -2 -8 3 -47 1 -87 -5 -40 -6 -97 -13 -126 -16 -29 -2
-57 -7 -62 -10 -6 -4 -11 -1 -11 4 -3 24 -5 116 -3 121 2 4 321 5 347 1z m435
-14 c2 -9 0 -17 -5 -17 -4 0 -35 -4 -68 -10 -66 -10 -177 -21 -240 -24 -41 -1
-41 -1 -36 57 1 10 41 12 173 12 156 0 173 -2 176 -18z m212 14 c0 -4 -8 -7
-17 -7 -10 -1 -39 -4 -64 -7 -33 -5 -48 -3 -52 6 -3 9 14 12 64 13 38 1 69 -2
69 -5z m40 5 c0 -2 -7 -7 -16 -10 -8 -3 -12 -2 -9 4 6 10 25 14 25 6z"/>
<path d="M1550 841 c-124 -37 -211 -111 -266 -226 -38 -79 -44 -107 -44 -185
-1 -121 43 -224 132 -310 89 -85 179 -119 313 -116 74 2 100 7 149 29 57 26
142 87 159 114 4 6 14 18 21 26 21 20 52 86 69 144 16 54 17 189 2 228 -26 65
-56 123 -75 145 -12 14 -25 30 -28 36 -16 24 -108 85 -160 105 -75 29 -197 33
-272 10z m206 -220 c140 -64 167 -238 53 -349 -52 -51 -153 -68 -222 -38 -93
41 -150 152 -125 243 36 130 175 198 294 144z"/>
<path d="M1628 529 c-31 -12 -68 -65 -68 -98 0 -82 96 -135 166 -91 70 44 64
149 -11 184 -37 18 -49 19 -87 5z"/>
<path d="M4111 835 c-181 -66 -289 -217 -289 -405 0 -78 25 -169 63 -230 29
-46 96 -112 131 -130 16 -8 36 -20 46 -28 9 -7 25 -15 35 -17 10 -2 18 -4 18
-5 0 -7 67 -14 145 -14 89 0 100 2 170 36 97 46 163 111 206 204 57 123 59
239 5 357 -57 127 -151 206 -287 242 -79 21 -168 17 -243 -10z m254 -228 c105
-71 126 -204 50 -306 -39 -52 -75 -72 -139 -78 -98 -9 -172 30 -215 113 -42
81 -24 185 44 248 66 62 187 72 260 23z"/>
<path d="M4191 518 c-60 -38 -62 -135 -3 -174 56 -37 118 -24 153 32 34 56 7
134 -54 153 -44 13 -61 11 -96 -11z"/>
</g>
</svg>
